<?xml version="1.0" encoding="iso-8859-1"?>
<!-- Generator: Adobe Illustrator 20.1.0, SVG Export Plug-In . SVG Version: 6.00 Build 0)  -->
<svg version="1.1" id="Layer_1" xmlns="http://www.w3.org/2000/svg" xmlns:xlink="http://www.w3.org/1999/xlink" x="0px" y="0px"
	 viewBox="0 0 331.227 102.551" style="enable-background:new 0 0 331.227 102.551;" xml:space="preserve">
<g>
	<g>
		<g>
			<path style="fill:#E8B21F;" d="M87.343,5.492V76.27c0,3.03-2.462,5.492-5.492,5.492H5.501c-3.036,0-5.5-2.462-5.5-5.492V5.492
				C0.002,2.462,2.465,0,5.501,0h76.35C84.881,0,87.343,2.462,87.343,5.492z"/>
		</g>
	</g>
	<g>
		<path style="fill:#FBC051;" d="M62.342,15.439c8.698,0,17.09,1.297,25.001,3.702V5.492c0-3.03-2.462-5.492-5.495-5.492H5.501
			C2.463,0,0,2.462,0,5.492v36.762C15.652,25.739,37.793,15.439,62.342,15.439z"/>
		<path style="fill:#FAB321;" d="M5.501,81.762h76.347c3.033,0,5.495-2.462,5.495-5.492V19.14
			c-7.911-2.404-16.303-3.702-25.001-3.702c-24.549,0-46.691,10.3-62.342,26.815V76.27C0,79.3,2.463,81.762,5.501,81.762z"/>
	</g>
	<g>
		<g>
			<path style="fill:#C3880E;" d="M35.223,47.075c-1.997,0.75-5.188,1.294-7.831,1.294c-14.614,0-20.301-10.82-20.301-19.799
				c0-8.132,5.834-20.379,20.449-20.379c11.923,0,20.2,8.307,20.2,19.977c0,8.782-5.536,14.316-8.676,16.415l10.025,5.135
				c10.526,5.389,17.156,4.857,20.551,4.857c2.592,0,6.286-0.942,9.724-2.284c0.298-0.103,1-0.88,1.198-0.88
				c0.252,0,0,2.447,0,2.698c0,0.296-0.248,0.447-0.597,0.599c-2.992,1.446-8.629,3.738-15.814,3.738
				c-7.53,0-12.819-1.993-21.098-6.78L35.223,47.075 M40.758,29.516c0-12.07-7.482-17.855-14.365-17.855
				c-6.535,0-12.371,4.191-12.371,15.762c0,11.873,7.181,17.374,15.213,17.374C33.225,44.798,40.758,44.13,40.758,29.516z"/>
			<path style="fill:#C3880E;" d="M56.17,47.075c-0.8-0.351-0.947-0.599-0.947-1.694c0-2.746,0.198-5.734,0.25-6.538
				c0.048-0.744,0.198-1.294,0.599-1.294c0.447,0,0.497,0.447,0.497,0.847c0,0.65,0.198,1.694,0.451,2.546
				c1.095,3.689,4.04,3.956,7.131,3.956c4.49,0,6.683-1.963,6.683-4.609c0-2.443-0.748-4.784-4.887-7.978l-2.294-1.796
				c-5.487-4.288-7.382-7.778-7.382-11.822c0-5.489,4.588-10.503,11.521-10.503c3.24,0,5.338,1.575,6.632,1.923
				c0.449,0.103,0.56,0.251,0.56,0.599c0,0.65-0.059,2.096-0.059,5.988c0,1.095-0.146,1.494-0.547,1.494
				c-0.351,0-0.5-0.297-0.5-0.898c0-0.451-0.248-1.993-1.296-3.287c-0.748-0.95-2.196-2.45-5.436-2.45
				c-3.692,0-5.936,2.147-5.936,5.141c0,2.293,1.148,4.04,5.289,7.18l1.394,1.049c5.985,4.639,8.18,7.981,8.18,12.717
				c0,2.894-1.098,6.339-4.691,8.685c-2.494,1.591-5.286,2.038-7.929,2.038C60.558,48.369,58.314,48.022,56.17,47.075z"/>
		</g>
	</g>
	<ellipse style="fill:#C3880E;" cx="43.956" cy="72.801" rx="36.341" ry="1.709"/>
	<g>
		<g>
			<path style="fill:#FFFFFF;" d="M35.223,44.377c-1.997,0.75-5.188,1.294-7.831,1.294c-14.614,0-20.301-10.82-20.301-19.799
				c0-8.132,5.834-19.3,20.449-19.3c11.923,0,20.2,7.228,20.2,18.898c0,8.782-5.536,14.316-8.676,16.415l10.025,5.135
				c10.526,5.389,17.156,5.936,20.551,5.936c2.592,0,6.286-0.402,9.724-1.745c0.298-0.103,0.549-0.248,0.747-0.248
				c0.252,0,0.451,0.197,0.451,0.447c0,0.296-0.248,0.447-0.597,0.599c-2.992,1.446-8.629,3.738-15.814,3.738
				c-7.53,0-12.819-1.993-21.098-6.78L35.223,44.377 M40.758,26.819c0-12.07-7.482-17.855-14.365-17.855
				c-6.535,0-12.371,4.191-12.371,15.762c0,11.873,7.181,18.454,15.213,18.454C33.225,43.179,40.758,41.432,40.758,26.819z"/>
			<path style="fill:#FFFFFF;" d="M56.17,44.377c-0.8-0.351-0.947-0.599-0.947-1.694c0-2.746,0.198-5.734,0.25-6.538
				c0.048-0.744,0.198-1.294,0.599-1.294c0.447,0,0.497,0.447,0.497,0.847c0,0.65,0.198,1.694,0.451,2.546
				c1.095,3.689,4.04,5.035,7.131,5.035c4.49,0,6.683-3.042,6.683-5.688c0-2.443-0.748-4.784-4.887-7.978l-2.294-1.796
				c-5.487-4.288-7.382-7.778-7.382-11.822c0-5.489,4.588-9.423,11.521-9.423c3.24,0,5.338,0.496,6.632,0.844
				c0.449,0.103,0.7,0.251,0.7,0.599c0,0.65-0.2,2.096-0.2,5.988c0,1.095-0.146,1.494-0.547,1.494c-0.351,0-0.5-0.297-0.5-0.898
				c0-0.451-0.248-1.993-1.296-3.287c-0.748-0.95-2.196-2.45-5.436-2.45c-3.692,0-5.936,2.147-5.936,5.141
				c0,2.293,1.148,4.04,5.289,7.18l1.394,1.049c5.985,4.639,8.18,7.981,8.18,12.717c0,2.894-1.098,6.339-4.691,8.685
				c-2.494,1.591-5.286,2.038-7.929,2.038C60.558,45.671,58.314,45.324,56.17,44.377z"/>
		</g>
	</g>
	<g>
		<g style="opacity:0.3;">
			<g>
				<path style="fill:#FFFFFF;" d="M278.518,13.47c1.785,0.216,2.962,1.717,2.752,3.458l-0.054,0.447
					c-0.211,1.741-1.711,2.918-3.497,2.702c-1.831-0.221-3.008-1.722-2.797-3.463l0.054-0.447
					C275.186,14.425,276.687,13.248,278.518,13.47z"/>
			</g>
			<g>
				<path style="fill:none;stroke:#FFFFFF;stroke-width:2.4953;" d="M278.198,55.822c5.395,0.018,9.428,4.078,9.41,9.338
					l-0.005,1.35c-0.018,5.261-4.077,9.293-9.473,9.275c-5.533-0.019-9.565-4.078-9.547-9.339l0.005-1.35
					C268.606,59.836,272.666,55.803,278.198,55.822z"/>
			</g>
			<g>
				<path style="fill:none;stroke:#FFFFFF;stroke-width:1.6635;" d="M278.93,10.249c3.528,0.427,5.853,3.392,5.437,6.832
					l-0.107,0.882c-0.416,3.44-3.381,5.765-6.909,5.339c-3.618-0.437-5.943-3.403-5.527-6.842l0.107-0.882
					C272.347,12.137,275.312,9.812,278.93,10.249z"/>
			</g>
			<g>
				<path style="fill:#FFFFFF;" d="M313.249,23.175c1.798,0.006,3.143,1.359,3.137,3.113l-0.002,0.45
					c-0.006,1.754-1.359,3.098-3.158,3.092c-1.844-0.006-3.188-1.359-3.182-3.113l0.002-0.45
					C310.051,24.513,311.405,23.169,313.249,23.175z"/>
			</g>
			<g>
				<path style="fill:none;stroke:#FFFFFF;stroke-width:1.6635;" d="M313.282,19.928c3.553,0.012,6.209,2.686,6.197,6.15
					l-0.003,0.889c-0.012,3.465-2.685,6.12-6.239,6.108c-3.644-0.012-6.3-2.686-6.288-6.151l0.003-0.889
					C306.965,22.572,309.638,19.916,313.282,19.928z"/>
			</g>
			<g>
				<path style="fill:#FFFFFF;" d="M324.165,54.412c1.798,0.006,3.143,1.359,3.137,3.113l-0.002,0.45
					c-0.006,1.754-1.359,3.098-3.158,3.092c-1.844-0.006-3.188-1.359-3.182-3.113l0.002-0.45
					C320.967,55.749,322.32,54.405,324.165,54.412z"/>
			</g>
			<g>
				<path style="fill:none;stroke:#FFFFFF;stroke-width:1.6635;" d="M324.198,51.165c3.553,0.012,6.209,2.686,6.197,6.15
					l-0.003,0.889c-0.012,3.465-2.685,6.12-6.239,6.108c-3.644-0.012-6.3-2.686-6.288-6.151l0.003-0.889
					C317.88,53.808,320.554,51.153,324.198,51.165z"/>
			</g>
			<g>
				<path style="fill:#FFFFFF;" d="M294.304,91.117c1.798,0.006,3.142,1.359,3.137,3.113l-0.002,0.45
					c-0.006,1.754-1.359,3.098-3.158,3.092c-1.844-0.006-3.188-1.359-3.182-3.113l0.001-0.45
					C291.106,92.455,292.459,91.111,294.304,91.117z"/>
			</g>
			<g>
				<path style="fill:none;stroke:#FFFFFF;stroke-width:1.6635;" d="M294.337,87.87c3.553,0.012,6.209,2.686,6.197,6.15
					l-0.003,0.889c-0.012,3.465-2.685,6.12-6.239,6.108c-3.644-0.012-6.3-2.686-6.288-6.151l0.003-0.889
					C288.019,90.514,290.693,87.858,294.337,87.87z"/>
			</g>
			<g>
				<path style="fill:#FFFFFF;" d="M256.145,92.137c1.613-0.796,3.419-0.183,4.195,1.39l0.199,0.403
					c0.776,1.573,0.163,3.379-1.45,4.174c-1.654,0.816-3.46,0.203-4.236-1.37l-0.199-0.403
					C253.879,94.758,254.491,92.952,256.145,92.137z"/>
			</g>
			<g>
				<path style="fill:none;stroke:#FFFFFF;stroke-width:1.6635;" d="M254.729,89.215c3.187-1.572,6.755-0.361,8.288,2.746
					l0.393,0.797c1.533,3.107,0.322,6.676-2.865,8.248c-3.268,1.612-6.837,0.401-8.369-2.706l-0.393-0.797
					C250.25,94.395,251.461,90.827,254.729,89.215z"/>
			</g>
			<line style="fill:none;stroke:#FFFFFF;stroke-width:1.6635;" x1="283.025" y1="74.532" x2="291.07" y2="88.778"/>
			<line style="fill:none;stroke:#FFFFFF;stroke-width:1.6635;" x1="287.551" y1="64.147" x2="317.863" y2="58.836"/>
			<line style="fill:none;stroke:#FFFFFF;stroke-width:1.6635;" x1="308.839" y1="31.399" x2="284.748" y2="58.359"/>
			<line style="fill:none;stroke:#FFFFFF;stroke-width:1.6635;" x1="273.436" y1="74.021" x2="261.476" y2="89.961"/>
			<line style="fill:none;stroke:#FFFFFF;stroke-width:1.6635;" x1="278.133" y1="23.347" x2="278.316" y2="55.955"/>
		</g>
		<g>
			<g>
				<path style="fill:#FFFFFF;" d="M278.018,59.892c3.187,0,5.577,2.39,5.577,5.497v0.797c0,3.107-2.39,5.497-5.577,5.497
					c-3.268,0-5.658-2.39-5.658-5.497v-0.797C272.36,62.281,274.749,59.892,278.018,59.892z"/>
			</g>
		</g>
	</g>
	<g>
		<path style="fill:#FFFFFF;" d="M100.877,69.368c-1.015-0.876-1.522-2.106-1.522-3.691V15.956c0-1.558,0.507-2.781,1.522-3.671
			s2.232-1.335,3.65-1.335c1.418,0,2.634,0.438,3.65,1.313c1.015,0.876,1.522,2.106,1.522,3.692v19.646h27.864V15.956
			c0-1.558,0.514-2.781,1.543-3.671c1.028-0.89,2.253-1.335,3.671-1.335c1.39,0,2.593,0.438,3.608,1.313
			c1.015,0.876,1.522,2.106,1.522,3.692v49.721c0,1.585-0.508,2.815-1.522,3.691c-1.016,0.876-2.232,1.314-3.65,1.314
			s-2.635-0.438-3.649-1.314c-1.016-0.876-1.522-2.106-1.522-3.691V43.861h-27.864v21.815c0,1.585-0.508,2.815-1.522,3.691
			c-1.016,0.876-2.246,1.314-3.691,1.314C103.094,70.682,101.892,70.244,100.877,69.368z"/>
		<path style="fill:#FFFFFF;" d="M172.96,70.328c-2.892-0.904-5.457-2.232-7.695-3.984c-2.239-1.752-3.998-4.031-5.276-6.841
			c-1.28-2.808-1.919-5.992-1.919-9.552V15.622c0-1.585,0.507-2.815,1.522-3.691c1.015-0.876,2.245-1.314,3.691-1.314
			c1.39,0,2.6,0.438,3.629,1.314c1.028,0.876,1.543,2.106,1.543,3.691v34.037c0,2.336,0.396,4.408,1.189,6.215
			c0.792,1.809,1.855,3.247,3.19,4.317c1.335,1.071,2.809,1.877,4.422,2.42c1.612,0.542,3.309,0.812,5.089,0.812
			c1.808,0,3.524-0.271,5.151-0.812c1.627-0.543,3.107-1.349,4.442-2.42c1.335-1.07,2.398-2.509,3.191-4.317
			c0.792-1.807,1.188-3.879,1.188-6.215V15.622c0-1.585,0.507-2.815,1.522-3.691c1.015-0.876,2.245-1.314,3.691-1.314
			c1.391,0,2.593,0.438,3.608,1.314c1.015,0.876,1.522,2.106,1.522,3.691v34.329c0,3.56-0.646,6.744-1.939,9.552
			c-1.293,2.81-3.06,5.089-5.298,6.841s-4.804,3.08-7.696,3.984c-2.892,0.903-6.021,1.355-9.385,1.355
			C178.98,71.683,175.852,71.231,172.96,70.328z"/>
		<path style="fill:#FFFFFF;" d="M218.263,69.305c-0.987-0.973-1.48-2.141-1.48-3.504v-49.93c0-1.39,0.493-2.571,1.48-3.546
			c0.987-0.973,2.176-1.459,3.566-1.459h17.77c6.841,0,11.951,1.313,15.33,3.941c3.378,2.628,5.067,6.236,5.067,10.824
			c0,3.782-0.945,6.883-2.836,9.302c-1.892,2.42-4.729,3.949-8.51,4.589v0.166c4.394,0.584,7.814,2.135,10.262,4.651
			c2.446,2.518,3.67,5.985,3.67,10.407c0,2.059-0.458,4.032-1.376,5.923c-0.918,1.892-2.239,3.595-3.963,5.11
			c-1.725,1.516-3.977,2.726-6.757,3.629c-2.781,0.903-5.896,1.355-9.344,1.355H221.83
			C220.439,70.765,219.251,70.279,218.263,69.305z M237.681,36.102c4.448,0,7.612-0.716,9.489-2.148
			c1.877-1.432,2.815-3.886,2.815-7.362c0-1.334-0.188-2.481-0.563-3.44c-0.375-0.96-0.862-1.717-1.46-2.273
			s-1.404-0.987-2.419-1.293c-1.016-0.306-2.03-0.508-3.045-0.605c-1.016-0.097-2.26-0.146-3.733-0.146h-11.638v17.269H237.681z
			 M239.349,62.756c2.196,0,4.005-0.118,5.423-0.354s2.69-0.674,3.816-1.314c1.126-0.639,1.946-1.577,2.461-2.815
			c0.515-1.236,0.771-2.815,0.771-4.734c0-1.64-0.229-3.037-0.688-4.191s-1.078-2.079-1.856-2.774
			c-0.779-0.694-1.85-1.23-3.212-1.605c-1.363-0.376-2.781-0.626-4.255-0.751s-3.31-0.188-5.506-0.188h-9.177v18.729H239.349z"/>
	</g>
</g>
</svg>
